<svg xmlns="http://www.w3.org/2000/svg" viewBox="0 0 2560 1440"><defs><clipPath id="a" clipPathUnits="userSpaceOnUse"><path d="M0 1080h1920V0H0Z"/></clipPath></defs><g clip-path="url(#a)" transform="matrix(1.33333 0 0 -1.33333 0 1440)"><path d="M0 0c-47.035-56.78-105.759-95.345-175.784-116.206-18.952-5.647-38.325-9.197-57.986-11.218-16.657-1.713-33.338-2.35-50.062-1.752-62.008 2.219-119.378 20.122-171.78 53.713-76.152 48.816-127.131 117.366-153.473 204.791-5.393 17.898-8.739 36.257-10.982 54.844-2.728 22.612-3.131 45.283-1.831 67.974 1.135 19.825 3.986 39.437 8.679 58.743.22.905.532 1.787.87 2.906 1.337.167 2.599.444 3.866.461 4.318.057 8.638.024 12.957.024 53.708.001 107.415.001 161.122.001h6.42c1.371-1.792.249-2.888-.312-3.995-4.389-8.657-8.299-17.52-11.313-26.774-7.348-22.563-10.007-45.668-8.147-69.375 3.317-42.295 19.454-78.918 47.857-109.741 26.759-29.04 59.845-47.049 98.395-53.909 82.972-14.763 156.776 31.614 188.557 97.571 11.309 23.47 17.362 48.14 18.393 74.282 2.694 68.276-36.306 134.118-96.928 165.353-18.083 9.317-37.053 15.725-57.205 18.109-8 .946-16.103 1.348-24.161 1.375-40.186.135-80.373.063-120.559.063h-180.098c-.952 2.088.413 3.204 1.125 4.418 9.239 15.762 19.577 30.75 31.191 44.798 46.698 56.485 104.902 95.212 174.493 116.207 18.57 5.602 37.574 9.078 56.84 11.239 19.281 2.162 38.602 2.673 57.936 1.689 48.278-2.457 94.021-14.815 137.244-36.85 44.586-22.729 82.982-53.369 114.905-92.34.944-1.152 1.961-2.241 3.123-3.563 2.076 1.066 3.085 2.95 4.35 4.485 16.945 20.563 35.847 39.059 56.885 55.252 39.088 30.087 82.227 51.712 129.946 63.608 18.263 4.553 36.783 7.621 55.57 8.712 10.303.599 20.63.995 30.95 1.044 29.106.137 58.214.048 87.32.048h6.306c57.508-58.528 114.943-116.981 172.356-175.458.174-.177.022-.685.022-1.455-.66-.081-1.345-.226-2.033-.241-1.877-.038-3.755-.027-5.633-.027-88.189-.001-176.378-.033-264.568.031-13.969.01-27.912-1.722-41.373-5.516-55.052-15.515-94.902-49.365-118.577-102.373-10.313-23.091-14.986-47.428-14.924-72.78.114-46.082 15.51-86.334 45.491-120.59 26.851-30.68 60.684-49.655 100.415-56.885 36.388-6.622 71.915-2.839 105.628 13.201 32.215 15.326 58.216 38.127 77.418 68.698 1.07 1.702 2.551 3.274 2.648 5.762-5.958.669-11.753.232-17.53.311-5.821.079-11.643.018-17.464.018H188.674c-5.634 0-11.268-.003-16.902 0-5.05.004-10.101-.013-15.601.01-1.211.005-1.942 1.464-1.147 2.393.004.005.008.01.012.014.994 1.141 2.089 2.192 3.151 3.271 54.431 55.314 108.868 110.622 163.281 165.953 1.721 1.751 3.214 3.735 5.327 5.087.166.084.325.187.499.245.176.059.367.104.552.104 99.15.037 198.3.069 297.452.099.75.001 1.502-.01 2.252-.051.372-.02.745-.099 1.105-.198.164-.045.297-.203.832-.592.083-.766.303-1.853.303-2.94-.011-31.284.409-62.576-.173-93.849-.996-53.489-13.917-103.99-38.041-151.605C540.532-34.125 455.047-92.273 372.371-116.25c-18.993-5.508-38.328-9.221-57.996-11.173-11.781-1.17-23.575-1.915-35.416-1.965-68.286-.289-131.181 18.368-188.835 55.43C59.748-54.433 32.938-30.727 9.631-2.93 7.81-.758 1.068 1.289 0 0" style="fill:#fff;fill-opacity:1;fill-rule:nonzero;stroke:none" transform="translate(956.9443 311.6621)"/><path d="M0 0c-4.705-5.414-9.358-10.875-14.122-16.233-21.219-23.87-45.331-44.262-72.086-61.409-28.178-18.058-58.177-32.108-90.196-41.601-18.177-5.389-36.658-9.221-55.489-11.364-10.984-1.251-21.972-2.262-33.012-2.222-2.736 1.198-5.65 1.202-8.579 1.233-3.122.033-6.303-.132-9.346.422-2.564.467-5.068.769-7.647.638-7.404.905-14.754 2.147-22.117 3.348-14.232 2.32-28.137 5.871-41.858 10.271-11.955 3.835-23.707 8.185-35.191 13.336-12.86 5.769-25.377 12.21-37.52 19.365-11.649 6.864-22.876 14.426-33.626 22.684-11.492 8.828-22.652 18.062-32.857 28.428-5.167 5.25-10.389 10.447-15.428 15.82-3.867 4.125-7.692 8.324-11.173 12.782-5.572 7.136-11.1 14.304-16.374 21.689-11.575 16.21-21.47 33.426-30.257 51.283-4.002 8.133-7.66 16.475-10.971 24.972-9.944 25.522-17.214 51.72-20.814 78.964-.447 3.384-.625 6.803-1.218 10.152-1.127 6.363-1.624 12.82-1.782 19.216-.371 15.027-.12 30.068-.106 45.103.001 1.331-.111 2.718.207 3.98 1.355 5.374 1.125 10.928 1.754 16.376.783 6.788 1.907 13.504 3.019 20.221 1.206 7.284 2.825 14.498 4.264 21.742 1.868.07 3.736.201 5.604.202 50.201.011 100.403.009 150.604.009h5.948c.967-2.089-.298-3.295-.939-4.564-4.11-8.134-7.775-16.467-10.639-25.131-4.546-13.754-7.315-27.856-8.416-42.363-2.066-27.208 1.405-53.611 11.523-78.839 23.419-58.391 65.746-94.906 125.736-110.403 9.428-2.435 19.118-3.543 28.879-4.076 7.69-.419 15.338-.4 23.005.153 1.86.134 3.734.066 5.603.091 1.685.002 3.371.072 5.051-.004 10.693-.487 21.316.528 31.748 2.632 14.496 2.923 28.578 7.419 41.894 14.063 14.314 7.141 27.598 15.856 39.823 26.347 8.339 7.156 15.862 15.042 22.64 23.639 9.375 11.893 17.051 24.876 23.306 38.769 4.37 9.709 7.9 19.675 10.595 29.962 2.499 9.541 4.21 19.314 4.659 29.104.564 12.294.926 24.641-.703 36.979-1.344 10.184-3.325 20.168-6.235 29.977-4.399 14.828-11.106 28.611-18.935 41.826-4.725 7.974-10.007 15.638-16.215 22.478-7.092 7.814-14.395 15.431-22.541 22.211-10.035 8.352-20.852 15.407-32.348 21.392-13.69 7.127-28.072 12.439-43.165 15.534-5.464 1.12-10.945 2.394-16.566 2.589-2.799.097-5.566.455-8.346.762-5.939.656-11.949.571-17.925.051-.329-.028-.631-.375-.945-.574-6.355.04-12.71.114-19.065.114-64.175.009-128.351.011-192.527.004-32.743-.004-65.486-.038-98.229-.021-2.026.002-4.123-.453-6.078.534 1.299.103 2.598.286 3.897.296 4.683.039 9.367.078 14.048-.007 2.094-.037 3.479.684 4.55 2.588 1.948 3.459 4.083 6.814 6.22 10.161 7.023 10.999 14.449 21.713 22.53 31.937 4.093 5.179 8.209 10.371 12.694 15.193 15.435 16.59 31.587 32.385 49.623 46.126 14.245 10.853 29.125 20.675 44.769 29.257 12.18 6.682 24.637 12.831 37.53 18.031 12.166 4.906 24.476 9.334 37.157 12.678 12.279 3.239 24.63 6.007 37.2 7.937 7.371 1.131 14.774 2.155 22.159 2.892 8.162.815 16.453.305 24.688.372 8.45.378 16.834-.631 25.187-1.587 15.432-1.766 30.697-4.574 45.769-8.468 30.29-7.825 58.887-19.869 86.091-35.406 31.734-18.124 60.022-40.729 84.83-67.79 5.609-6.117 10.894-12.54 16.327-18.82 3.294-4.412 6.577-8.837 9.904-13.227.43-.568 1.093-.954 1.649-1.425.336-2.195 1.944-3.649 3.1-5.343 18.648-27.332 33.563-56.617 44.468-87.976 7.243-20.831 12.414-42.183 15.476-64.076 1.845-13.187 2.832-26.417 3.472-39.715.614-12.761.214-25.489-.617-38.177-2.516-38.413-10.988-75.456-25.909-110.905-10.036-23.841-22.264-46.455-36.944-67.687-.964-1.396-1.795-2.886-2.686-4.334C7.295 10.379 3.608 5.221 0 0" style="fill:#1aa9ff;fill-opacity:1;fill-rule:nonzero;stroke:none" transform="translate(957.9771 316.9238)"/><path d="M0 0c-1.439-7.244-3.059-14.458-4.264-21.742-1.112-6.717-2.236-13.433-3.019-20.22-.629-5.449-.399-11.002-1.754-16.377-.318-1.262-.206-2.649-.207-3.979-.014-15.036-.265-30.077.106-45.103.158-6.397.655-12.854 1.782-19.217.593-3.349.771-6.768 1.218-10.152 3.6-27.244 10.87-53.442 20.814-78.963 3.311-8.497 6.969-16.84 10.971-24.973 8.787-17.857 18.682-35.072 30.257-51.282 5.274-7.386 10.802-14.554 16.374-21.69 3.481-4.458 7.305-8.657 11.173-12.782 5.039-5.373 10.26-10.57 15.427-15.819 10.205-10.367 21.366-19.601 32.858-28.429 10.75-8.258 21.977-15.819 33.626-22.684 12.143-7.155 24.659-13.595 37.52-19.365 11.484-5.151 23.236-9.501 35.191-13.336 13.72-4.4 27.626-7.951 41.858-10.271 7.362-1.2 14.713-2.443 22.118-3.347-.818-.996-1.947-.987-3.077-.984-3.366.008-6.731.015-10.097.023-5.467-.313-10.842.709-16.202 1.44-71.534 9.748-133.936 39.803-187.633 88.407-49.094 44.437-83.021 99.012-102.679 162.723-5.89 19.093-9.703 38.644-12.098 58.51-2.764 22.931-3.21 45.911-1.824 68.927 1.133 18.817 3.914 37.421 8.084 55.801.21.926.444 1.848.699 2.762.581 2.087.845 2.332 3.14 2.401 2.245.067 4.495.054 6.742.015C-8.597.219-4.299.101 0 0" style="fill:#1373ac;fill-opacity:1;fill-rule:nonzero;stroke:none" transform="translate(365.4521 626.1196)"/><path d="M0 0c.314.199.616.545.944.574 5.976.52 11.987.605 17.926-.052 2.78-.307 5.547-.664 8.345-.761 5.621-.195 11.102-1.469 16.567-2.59 15.093-3.094 29.475-8.406 43.164-15.533 11.496-5.985 22.314-13.04 32.349-21.392 8.145-6.78 15.449-14.397 22.54-22.211 6.208-6.841 11.491-14.504 16.215-22.478 7.83-13.215 14.536-26.998 18.936-41.827 2.91-9.808 4.891-19.792 6.235-29.976 1.629-12.338 1.267-24.685.703-36.979-.449-9.79-2.16-19.564-4.659-29.105-2.695-10.287-6.225-20.253-10.596-29.962-6.254-13.892-13.93-26.875-23.306-38.768-6.777-8.597-14.301-16.483-22.639-23.64-12.225-10.49-25.51-19.205-39.824-26.346-13.315-6.644-27.398-11.14-41.894-14.063-10.432-2.104-21.054-3.119-31.748-2.633-1.679.076-3.365.007-5.05.005 3.521 1.509 7.35 1.311 11.023 1.927 58.291 9.778 123.612 54.784 142.663 138.808 4.361 19.235 4.878 38.759 3.007 58.424-4.437 46.637-32.88 103.642-88.633 135.525C56.003-13.752 38.89-6.735 20.528-3.14 13.739-1.81 6.846-1.03 0 0" style="fill:#1472ac;fill-opacity:1;fill-rule:nonzero;stroke:none" transform="translate(698.1523 718.936)"/><path d="M0 0c-8.235-.067-16.526.443-24.688-.372-7.386-.737-14.789-1.76-22.16-2.892-12.569-1.929-24.92-4.698-37.199-7.937-12.681-3.344-24.992-7.771-37.158-12.677-12.893-5.2-25.349-11.349-37.529-18.031-15.644-8.582-30.525-18.404-44.769-29.257-18.037-13.741-34.188-29.536-49.623-46.127-4.485-4.821-8.602-10.013-12.694-15.192-8.081-10.225-15.508-20.938-22.53-31.938-2.137-3.347-4.272-6.701-6.22-10.161-1.071-1.903-2.456-2.625-4.55-2.587-4.681.085-9.365.045-14.048.007-1.3-.011-2.599-.193-3.897-.297-.468-.088-.935.173-.79.536.482 1.212 1.037 2.411 1.701 3.531 31.475 53.099 73.609 95.233 126.348 126.369 27.823 16.426 57.223 29.058 88.484 37.067C-71.923-2.427-42.064 1.104-11.755.671-7.834.615-3.918.231 0 0" style="fill:#1772ac;fill-opacity:1;fill-rule:nonzero;stroke:none" transform="translate(699.3184 897.0273)"/><path d="M0 0c3.365-.008 6.731-.015 10.097-.023 1.129-.003 2.259-.012 3.076.984 2.578.13 5.083-.172 7.646-.639 3.044-.553 6.224-.389 9.347-.422 2.929-.031 5.843-.035 8.579-1.233-10.191-.338-20.354-.134-30.51.37C5.481-.826 2.744-.331 0 0" style="fill:#1f7bb3;fill-opacity:1;fill-rule:nonzero;stroke:none" transform="translate(654.3276 185.4277)"/></g></svg>